<mxfile host="65bd71144e" pages="3">
    <diagram id="zPRYdK8pJtfR6c3fzrlC" name="Context">
        <mxGraphModel dx="1076" dy="746" grid="1" gridSize="10" guides="1" tooltips="1" connect="1" arrows="1" fold="1" page="1" pageScale="1" pageWidth="1169" pageHeight="827" math="0" shadow="0">
            <root>
                <mxCell id="0"/>
                <mxCell id="1" parent="0"/>
                <mxCell id="1l8XOtpIONAW6H5Cvvo0-13" style="edgeStyle=none;rounded=0;orthogonalLoop=1;jettySize=auto;html=1;exitX=0.5;exitY=1;exitDx=0;exitDy=0;exitPerimeter=0;entryX=0.633;entryY=0.004;entryDx=0;entryDy=0;entryPerimeter=0;" parent="1" source="1l8XOtpIONAW6H5Cvvo0-2" target="1l8XOtpIONAW6H5Cvvo0-5" edge="1">
                    <mxGeometry relative="1" as="geometry">
                        <mxPoint x="580" y="330" as="targetPoint"/>
                        <Array as="points"/>
                    </mxGeometry>
                </mxCell>
                <mxCell id="1l8XOtpIONAW6H5Cvvo0-16" value="Add Reservation" style="edgeLabel;html=1;align=center;verticalAlign=middle;resizable=0;points=[];" parent="1l8XOtpIONAW6H5Cvvo0-13" vertex="1" connectable="0">
                    <mxGeometry x="-0.3681" y="-1" relative="1" as="geometry">
                        <mxPoint as="offset"/>
                    </mxGeometry>
                </mxCell>
                <object placeholders="1" c4Name="Kunde" c4Type="Person" c4Description="Kunde" label="&lt;b&gt;%c4Name%&lt;/b&gt;&lt;div&gt;[%c4Type%]&lt;/div&gt;&lt;br&gt;&lt;div&gt;%c4Description%&lt;/div&gt;" id="1l8XOtpIONAW6H5Cvvo0-2">
                    <mxCell style="html=1;dashed=0;whitespace=wrap;fillColor=#08427b;strokeColor=none;fontColor=#ffffff;shape=mxgraph.c4.person;align=center;metaEdit=1;points=[[0.5,0,0],[1,0.5,0],[1,0.75,0],[0.75,1,0],[0.5,1,0],[0.25,1,0],[0,0.75,0],[0,0.5,0]];metaData={&quot;c4Type&quot;:{&quot;editable&quot;:false}};" parent="1" vertex="1">
                        <mxGeometry x="520" y="10" width="120" height="150" as="geometry"/>
                    </mxCell>
                </object>
                <mxCell id="1l8XOtpIONAW6H5Cvvo0-11" style="edgeStyle=none;rounded=0;orthogonalLoop=1;jettySize=auto;html=1;exitX=0.5;exitY=1;exitDx=0;exitDy=0;exitPerimeter=0;" parent="1" source="1l8XOtpIONAW6H5Cvvo0-3" edge="1">
                    <mxGeometry relative="1" as="geometry">
                        <mxPoint x="420" y="333" as="targetPoint"/>
                        <Array as="points">
                            <mxPoint x="420" y="320"/>
                        </Array>
                    </mxGeometry>
                </mxCell>
                <mxCell id="1l8XOtpIONAW6H5Cvvo0-12" value="Change Reservation to Contract" style="edgeLabel;html=1;align=center;verticalAlign=middle;resizable=0;points=[];" parent="1l8XOtpIONAW6H5Cvvo0-11" vertex="1" connectable="0">
                    <mxGeometry x="-0.0924" y="1" relative="1" as="geometry">
                        <mxPoint x="-1" y="-18.29" as="offset"/>
                    </mxGeometry>
                </mxCell>
                <object placeholders="1" c4Name="Vermieter" c4Type="Person" c4Description="Vermieter" label="&lt;b&gt;%c4Name%&lt;/b&gt;&lt;div&gt;[%c4Type%]&lt;/div&gt;&lt;br&gt;&lt;div&gt;%c4Description%&lt;/div&gt;" id="1l8XOtpIONAW6H5Cvvo0-3">
                    <mxCell style="html=1;dashed=0;whitespace=wrap;fillColor=#08427b;strokeColor=none;fontColor=#ffffff;shape=mxgraph.c4.person;align=center;metaEdit=1;points=[[0.5,0,0],[1,0.5,0],[1,0.75,0],[0.75,1,0],[0.5,1,0],[0.25,1,0],[0,0.75,0],[0,0.5,0]];metaData={&quot;c4Type&quot;:{&quot;editable&quot;:false}};" parent="1" vertex="1">
                        <mxGeometry x="360" y="10" width="120" height="150" as="geometry"/>
                    </mxCell>
                </object>
                <mxCell id="-3thqBRQORbnHxetHobW-2" style="edgeStyle=orthogonalEdgeStyle;rounded=0;orthogonalLoop=1;jettySize=auto;html=1;entryX=0.5;entryY=0;entryDx=0;entryDy=0;entryPerimeter=0;exitX=0.175;exitY=1.017;exitDx=0;exitDy=0;exitPerimeter=0;" parent="1" source="1l8XOtpIONAW6H5Cvvo0-5" target="1l8XOtpIONAW6H5Cvvo0-8" edge="1">
                    <mxGeometry relative="1" as="geometry"/>
                </mxCell>
                <mxCell id="-3thqBRQORbnHxetHobW-3" style="edgeStyle=orthogonalEdgeStyle;rounded=0;orthogonalLoop=1;jettySize=auto;html=1;" parent="1" source="1l8XOtpIONAW6H5Cvvo0-5" target="1l8XOtpIONAW6H5Cvvo0-6" edge="1">
                    <mxGeometry relative="1" as="geometry"/>
                </mxCell>
                <object placeholders="1" c4Name="CarRent" c4Type="Software System" c4Description="CarRent" label="&lt;b&gt;%c4Name%&lt;/b&gt;&lt;div&gt;[%c4Type%]&lt;/div&gt;&lt;br&gt;&lt;div&gt;%c4Description%&lt;/div&gt;" id="1l8XOtpIONAW6H5Cvvo0-5">
                    <mxCell style="rounded=1;whiteSpace=wrap;html=1;labelBackgroundColor=none;fillColor=#1168BD;fontColor=#ffffff;align=center;arcSize=10;strokeColor=#1168BD;metaEdit=1;metaData={&quot;c4Type&quot;:{&quot;editable&quot;:false}};points=[[0.25,0,0],[0.5,0,0],[0.75,0,0],[1,0.25,0],[1,0.5,0],[1,0.75,0],[0.75,1,0],[0.5,1,0],[0.25,1,0],[0,0.75,0],[0,0.5,0],[0,0.25,0]];" parent="1" vertex="1">
                        <mxGeometry x="220" y="334" width="570" height="156" as="geometry"/>
                    </mxCell>
                </object>
                <object placeholders="1" c4Name="GitHub" c4Type="Component" c4Technology="Git " c4Description="GitHub" label="&lt;b&gt;%c4Name%&lt;/b&gt;&lt;div&gt;[%c4Type%: %c4Technology%]&lt;/div&gt;&lt;br&gt;&lt;div&gt;%c4Description%&lt;/div&gt;" id="1l8XOtpIONAW6H5Cvvo0-6">
                    <mxCell style="rounded=1;whiteSpace=wrap;html=1;labelBackgroundColor=none;fillColor=#85BBF0;fontColor=#ffffff;align=center;arcSize=10;strokeColor=#78A8D8;metaEdit=1;metaData={&quot;c4Type&quot;:{&quot;editable&quot;:false}};points=[[0.25,0,0],[0.5,0,0],[0.75,0,0],[1,0.25,0],[1,0.5,0],[1,0.75,0],[0.75,1,0],[0.5,1,0],[0.25,1,0],[0,0.75,0],[0,0.5,0],[0,0.25,0]];" parent="1" vertex="1">
                        <mxGeometry x="425" y="615" width="160" height="110.00000000000001" as="geometry"/>
                    </mxCell>
                </object>
                <object placeholders="1" c4Type="Database" c4Technology="MSSQL" c4Description="Database" label="%c4Type%&lt;div&gt;[Container:&amp;nbsp;%c4Technology%]&lt;/div&gt;&lt;br&gt;&lt;div&gt;%c4Description%&lt;/div&gt;" id="1l8XOtpIONAW6H5Cvvo0-8">
                    <mxCell style="shape=cylinder;whiteSpace=wrap;html=1;boundedLbl=1;rounded=0;labelBackgroundColor=none;fillColor=#438DD5;fontSize=12;fontColor=#ffffff;align=center;strokeColor=#3C7FC0;metaEdit=1;points=[[0.5,0,0],[1,0.25,0],[1,0.5,0],[1,0.75,0],[0.5,1,0],[0,0.75,0],[0,0.5,0],[0,0.25,0]];metaData={&quot;c4Type&quot;:{&quot;editable&quot;:false}};" parent="1" vertex="1">
                        <mxGeometry x="240" y="600" width="160" height="140" as="geometry"/>
                    </mxCell>
                </object>
            </root>
        </mxGraphModel>
    </diagram>
    <diagram name="Container" id="Xei_vMuEvEU8nqrqjB99">
        <mxGraphModel dx="753" dy="522" grid="1" gridSize="10" guides="1" tooltips="1" connect="1" arrows="1" fold="1" page="1" pageScale="1" pageWidth="1169" pageHeight="827" math="0" shadow="0">
            <root>
                <mxCell id="m2FCy_B-wcqTo34Nw7x0-0"/>
                <mxCell id="m2FCy_B-wcqTo34Nw7x0-1" parent="m2FCy_B-wcqTo34Nw7x0-0"/>
                <mxCell id="m2FCy_B-wcqTo34Nw7x0-5" style="edgeStyle=none;rounded=0;orthogonalLoop=1;jettySize=auto;html=1;exitX=0.5;exitY=1;exitDx=0;exitDy=0;exitPerimeter=0;entryX=0.674;entryY=0.012;entryDx=0;entryDy=0;entryPerimeter=0;" parent="m2FCy_B-wcqTo34Nw7x0-1" source="m2FCy_B-wcqTo34Nw7x0-7" target="m2FCy_B-wcqTo34Nw7x0-16" edge="1">
                    <mxGeometry relative="1" as="geometry">
                        <mxPoint x="580" y="330" as="targetPoint"/>
                        <Array as="points"/>
                    </mxGeometry>
                </mxCell>
                <mxCell id="m2FCy_B-wcqTo34Nw7x0-6" value="https" style="edgeLabel;html=1;align=center;verticalAlign=middle;resizable=0;points=[];" parent="m2FCy_B-wcqTo34Nw7x0-5" vertex="1" connectable="0">
                    <mxGeometry x="-0.3681" y="-1" relative="1" as="geometry">
                        <mxPoint x="1" y="9" as="offset"/>
                    </mxGeometry>
                </mxCell>
                <object placeholders="1" c4Name="Kunde" c4Type="Person" c4Description="Kunde" label="&lt;b&gt;%c4Name%&lt;/b&gt;&lt;div&gt;[%c4Type%]&lt;/div&gt;&lt;br&gt;&lt;div&gt;%c4Description%&lt;/div&gt;" id="m2FCy_B-wcqTo34Nw7x0-7">
                    <mxCell style="html=1;dashed=0;whitespace=wrap;fillColor=#08427b;strokeColor=none;fontColor=#ffffff;shape=mxgraph.c4.person;align=center;metaEdit=1;points=[[0.5,0,0],[1,0.5,0],[1,0.75,0],[0.75,1,0],[0.5,1,0],[0.25,1,0],[0,0.75,0],[0,0.5,0]];metaData={&quot;c4Type&quot;:{&quot;editable&quot;:false}};" parent="m2FCy_B-wcqTo34Nw7x0-1" vertex="1">
                        <mxGeometry x="520" y="10" width="120" height="150" as="geometry"/>
                    </mxCell>
                </object>
                <mxCell id="m2FCy_B-wcqTo34Nw7x0-8" style="edgeStyle=none;rounded=0;orthogonalLoop=1;jettySize=auto;html=1;exitX=0.5;exitY=1;exitDx=0;exitDy=0;exitPerimeter=0;entryX=0.369;entryY=-0.004;entryDx=0;entryDy=0;entryPerimeter=0;" parent="m2FCy_B-wcqTo34Nw7x0-1" source="m2FCy_B-wcqTo34Nw7x0-10" target="m2FCy_B-wcqTo34Nw7x0-16" edge="1">
                    <mxGeometry relative="1" as="geometry">
                        <mxPoint x="420" y="333" as="targetPoint"/>
                        <Array as="points"/>
                    </mxGeometry>
                </mxCell>
                <mxCell id="m2FCy_B-wcqTo34Nw7x0-9" value="https" style="edgeLabel;html=1;align=center;verticalAlign=middle;resizable=0;points=[];" parent="m2FCy_B-wcqTo34Nw7x0-8" vertex="1" connectable="0">
                    <mxGeometry x="-0.0924" y="1" relative="1" as="geometry">
                        <mxPoint x="-1" y="-3" as="offset"/>
                    </mxGeometry>
                </mxCell>
                <object placeholders="1" c4Name="Vermieter" c4Type="Person" c4Description="Vermieter" label="&lt;b&gt;%c4Name%&lt;/b&gt;&lt;div&gt;[%c4Type%]&lt;/div&gt;&lt;br&gt;&lt;div&gt;%c4Description%&lt;/div&gt;" id="m2FCy_B-wcqTo34Nw7x0-10">
                    <mxCell style="html=1;dashed=0;whitespace=wrap;fillColor=#08427b;strokeColor=none;fontColor=#ffffff;shape=mxgraph.c4.person;align=center;metaEdit=1;points=[[0.5,0,0],[1,0.5,0],[1,0.75,0],[0.75,1,0],[0.5,1,0],[0.25,1,0],[0,0.75,0],[0,0.5,0]];metaData={&quot;c4Type&quot;:{&quot;editable&quot;:false}};" parent="m2FCy_B-wcqTo34Nw7x0-1" vertex="1">
                        <mxGeometry x="360" y="10" width="120" height="150" as="geometry"/>
                    </mxCell>
                </object>
                <mxCell id="iqdtkf3ECZtfw9wwz2oA-0" style="edgeStyle=orthogonalEdgeStyle;rounded=0;orthogonalLoop=1;jettySize=auto;html=1;entryX=0.5;entryY=0;entryDx=0;entryDy=0;entryPerimeter=0;" parent="m2FCy_B-wcqTo34Nw7x0-1" source="m2FCy_B-wcqTo34Nw7x0-16" target="LR0wOOOALzMg__HeK3IG-0" edge="1">
                    <mxGeometry relative="1" as="geometry"/>
                </mxCell>
                <mxCell id="iqdtkf3ECZtfw9wwz2oA-1" value="HTTPS Rest Kommunikation" style="edgeLabel;html=1;align=center;verticalAlign=middle;resizable=0;points=[];" parent="iqdtkf3ECZtfw9wwz2oA-0" vertex="1" connectable="0">
                    <mxGeometry x="-0.255" y="-2" relative="1" as="geometry">
                        <mxPoint as="offset"/>
                    </mxGeometry>
                </mxCell>
                <object c4Name="IIS Windows" c4Description="IIS Windows" label="&lt;b&gt;%c4Name%&lt;/b&gt;&lt;div&gt;[%c4Type%]&lt;/div&gt;&lt;br&gt;&lt;div&gt;%c4Description%&lt;/div&gt;" RestAPI="WebApplication" placeholders="1" c4Type="Webserver" id="m2FCy_B-wcqTo34Nw7x0-16">
                    <mxCell style="rounded=1;whiteSpace=wrap;html=1;labelBackgroundColor=none;fillColor=#1168BD;fontColor=#ffffff;align=center;arcSize=10;strokeColor=#1168BD;metaEdit=1;metaData={&quot;c4Type&quot;:{&quot;editable&quot;:false}};points=[[0.25,0,0],[0.5,0,0],[0.75,0,0],[1,0.25,0],[1,0.5,0],[1,0.75,0],[0.75,1,0],[0.5,1,0],[0.25,1,0],[0,0.75,0],[0,0.5,0],[0,0.25,0]];" parent="m2FCy_B-wcqTo34Nw7x0-1" vertex="1">
                        <mxGeometry x="360" y="280" width="280" height="80" as="geometry"/>
                    </mxCell>
                </object>
                <object placeholders="1" c4Type="Database" c4Technology="MSSQL" c4Description="Database" label="%c4Type%&lt;div&gt;[Container:&amp;nbsp;%c4Technology%]&lt;/div&gt;&lt;br&gt;&lt;div&gt;%c4Description%&lt;/div&gt;" id="m2FCy_B-wcqTo34Nw7x0-18">
                    <mxCell style="shape=cylinder;whiteSpace=wrap;html=1;boundedLbl=1;rounded=0;labelBackgroundColor=none;fillColor=#438DD5;fontSize=12;fontColor=#ffffff;align=center;strokeColor=#3C7FC0;metaEdit=1;points=[[0.5,0,0],[1,0.25,0],[1,0.5,0],[1,0.75,0],[0.5,1,0],[0,0.75,0],[0,0.5,0],[0,0.25,0]];metaData={&quot;c4Type&quot;:{&quot;editable&quot;:false}};" parent="m2FCy_B-wcqTo34Nw7x0-1" vertex="1">
                        <mxGeometry x="420" y="715" width="160" height="100" as="geometry"/>
                    </mxCell>
                </object>
                <mxCell id="iqdtkf3ECZtfw9wwz2oA-4" value="Microservice / Middelware .Net" style="edgeStyle=orthogonalEdgeStyle;rounded=0;orthogonalLoop=1;jettySize=auto;html=1;entryX=0.5;entryY=0;entryDx=0;entryDy=0;entryPerimeter=0;" parent="m2FCy_B-wcqTo34Nw7x0-1" source="LR0wOOOALzMg__HeK3IG-0" target="iqdtkf3ECZtfw9wwz2oA-2" edge="1">
                    <mxGeometry relative="1" as="geometry"/>
                </mxCell>
                <object placeholders="1" c4Name="CarRent Rest API" c4Type="Rest API" c4Description="CarRent Rest API" label="&lt;b&gt;%c4Name%&lt;/b&gt;&lt;div&gt;[%c4Type%]&lt;/div&gt;&lt;br&gt;&lt;div&gt;%c4Description%&lt;/div&gt;" id="LR0wOOOALzMg__HeK3IG-0">
                    <mxCell style="rounded=1;whiteSpace=wrap;html=1;labelBackgroundColor=none;fillColor=#1168BD;fontColor=#ffffff;align=center;arcSize=10;strokeColor=#1168BD;metaEdit=1;metaData={&quot;c4Type&quot;:{&quot;editable&quot;:false}};points=[[0.25,0,0],[0.5,0,0],[0.75,0,0],[1,0.25,0],[1,0.5,0],[1,0.75,0],[0.75,1,0],[0.5,1,0],[0.25,1,0],[0,0.75,0],[0,0.5,0],[0,0.25,0]];" parent="m2FCy_B-wcqTo34Nw7x0-1" vertex="1">
                        <mxGeometry x="360" y="420" width="280" height="80" as="geometry"/>
                    </mxCell>
                </object>
                <mxCell id="iqdtkf3ECZtfw9wwz2oA-3" value="EF Core SQL Provider" style="edgeStyle=orthogonalEdgeStyle;rounded=0;orthogonalLoop=1;jettySize=auto;html=1;" parent="m2FCy_B-wcqTo34Nw7x0-1" source="iqdtkf3ECZtfw9wwz2oA-2" target="m2FCy_B-wcqTo34Nw7x0-18" edge="1">
                    <mxGeometry relative="1" as="geometry"/>
                </mxCell>
                <object placeholders="1" c4Name="Backend Applikation" c4Type="Backend" c4Description="Backend Applikation" label="&lt;b&gt;%c4Name%&lt;/b&gt;&lt;div&gt;[%c4Type%]&lt;/div&gt;&lt;br&gt;&lt;div&gt;%c4Description%&lt;/div&gt;" id="iqdtkf3ECZtfw9wwz2oA-2">
                    <mxCell style="rounded=1;whiteSpace=wrap;html=1;labelBackgroundColor=none;fillColor=#1168BD;fontColor=#ffffff;align=center;arcSize=10;strokeColor=#1168BD;metaEdit=1;metaData={&quot;c4Type&quot;:{&quot;editable&quot;:false}};points=[[0.25,0,0],[0.5,0,0],[0.75,0,0],[1,0.25,0],[1,0.5,0],[1,0.75,0],[0.75,1,0],[0.5,1,0],[0.25,1,0],[0,0.75,0],[0,0.5,0],[0,0.25,0]];" parent="m2FCy_B-wcqTo34Nw7x0-1" vertex="1">
                        <mxGeometry x="360" y="560" width="280" height="80" as="geometry"/>
                    </mxCell>
                </object>
                <mxCell id="iqdtkf3ECZtfw9wwz2oA-5" value="" style="rounded=0;whiteSpace=wrap;html=1;fillColor=none;strokeColor=#0000FF;" parent="m2FCy_B-wcqTo34Nw7x0-1" vertex="1">
                    <mxGeometry x="320" y="370" width="360" height="450" as="geometry"/>
                </mxCell>
            </root>
        </mxGraphModel>
    </diagram>
    <diagram name="Component" id="Z8WVfOD9pPW8yoDT8nqn">
        <mxGraphModel dx="753" dy="522" grid="1" gridSize="10" guides="1" tooltips="1" connect="1" arrows="1" fold="1" page="1" pageScale="1" pageWidth="1169" pageHeight="827" math="0" shadow="0">
            <root>
                <mxCell id="P9d3PVxfsxtBwwCNncyn-0"/>
                <mxCell id="P9d3PVxfsxtBwwCNncyn-1" parent="P9d3PVxfsxtBwwCNncyn-0"/>
                <mxCell id="P9d3PVxfsxtBwwCNncyn-22" value="" style="rounded=0;whiteSpace=wrap;html=1;fillColor=none;strokeColor=#0000FF;" parent="P9d3PVxfsxtBwwCNncyn-1" vertex="1">
                    <mxGeometry x="320" y="171" width="360" height="629" as="geometry"/>
                </mxCell>
                <mxCell id="P9d3PVxfsxtBwwCNncyn-14" style="edgeStyle=orthogonalEdgeStyle;rounded=0;orthogonalLoop=1;jettySize=auto;html=1;entryX=0.5;entryY=0;entryDx=0;entryDy=0;entryPerimeter=0;" parent="P9d3PVxfsxtBwwCNncyn-1" source="P9d3PVxfsxtBwwCNncyn-16" target="FLz5yx3xKgqBNFCOjgOe-3" edge="1">
                    <mxGeometry relative="1" as="geometry"/>
                </mxCell>
                <mxCell id="P9d3PVxfsxtBwwCNncyn-15" value="HTTPS Rest Kommunikation" style="edgeLabel;html=1;align=center;verticalAlign=middle;resizable=0;points=[];" parent="P9d3PVxfsxtBwwCNncyn-14" vertex="1" connectable="0">
                    <mxGeometry x="-0.255" y="-2" relative="1" as="geometry">
                        <mxPoint as="offset"/>
                    </mxGeometry>
                </mxCell>
                <object c4Name="IIS Windows" c4Description="IIS Windows" label="&lt;b&gt;%c4Name%&lt;/b&gt;&lt;div&gt;[%c4Type%]&lt;/div&gt;&lt;br&gt;&lt;div&gt;%c4Description%&lt;/div&gt;" RestAPI="WebApplication" placeholders="1" c4Type="Webserver" id="P9d3PVxfsxtBwwCNncyn-16">
                    <mxCell style="rounded=1;whiteSpace=wrap;html=1;labelBackgroundColor=none;fillColor=#1168BD;fontColor=#ffffff;align=center;arcSize=10;strokeColor=#1168BD;metaEdit=1;metaData={&quot;c4Type&quot;:{&quot;editable&quot;:false}};points=[[0.25,0,0],[0.5,0,0],[0.75,0,0],[1,0.25,0],[1,0.5,0],[1,0.75,0],[0.75,1,0],[0.5,1,0],[0.25,1,0],[0,0.75,0],[0,0.5,0],[0,0.25,0]];" parent="P9d3PVxfsxtBwwCNncyn-1" vertex="1">
                        <mxGeometry x="360" y="40" width="280" height="80" as="geometry"/>
                    </mxCell>
                </object>
                <object placeholders="1" c4Type="Database" c4Technology="MSSQL" c4Description="Database" label="%c4Type%&lt;div&gt;[Container:&amp;nbsp;%c4Technology%]&lt;/div&gt;&lt;br&gt;&lt;div&gt;%c4Description%&lt;/div&gt;" id="P9d3PVxfsxtBwwCNncyn-17">
                    <mxCell style="shape=cylinder;whiteSpace=wrap;html=1;boundedLbl=1;rounded=0;labelBackgroundColor=none;fillColor=#438DD5;fontSize=12;fontColor=#ffffff;align=center;strokeColor=#3C7FC0;metaEdit=1;points=[[0.5,0,0],[1,0.25,0],[1,0.5,0],[1,0.75,0],[0.5,1,0],[0,0.75,0],[0,0.5,0],[0,0.25,0]];metaData={&quot;c4Type&quot;:{&quot;editable&quot;:false}};" parent="P9d3PVxfsxtBwwCNncyn-1" vertex="1">
                        <mxGeometry x="420" y="690" width="160" height="100" as="geometry"/>
                    </mxCell>
                </object>
                <mxCell id="P9d3PVxfsxtBwwCNncyn-18" value="" style="edgeStyle=orthogonalEdgeStyle;rounded=0;orthogonalLoop=1;jettySize=auto;html=1;entryX=0.5;entryY=0;entryDx=0;entryDy=0;entryPerimeter=0;" parent="P9d3PVxfsxtBwwCNncyn-1" source="P9d3PVxfsxtBwwCNncyn-19" target="FLz5yx3xKgqBNFCOjgOe-0" edge="1">
                    <mxGeometry relative="1" as="geometry"/>
                </mxCell>
                <object placeholders="1" c4Name="Rest API" c4Type="Rest API" c4Description="Rest API" label="&lt;b&gt;%c4Name%&lt;/b&gt;&lt;div&gt;[%c4Type%]&lt;/div&gt;&lt;br&gt;&lt;div&gt;%c4Description%&lt;/div&gt;" id="P9d3PVxfsxtBwwCNncyn-19">
                    <mxCell style="rounded=1;whiteSpace=wrap;html=1;labelBackgroundColor=none;fillColor=#1168BD;fontColor=#ffffff;align=center;arcSize=10;strokeColor=#1168BD;metaEdit=1;metaData={&quot;c4Type&quot;:{&quot;editable&quot;:false}};points=[[0.25,0,0],[0.5,0,0],[0.75,0,0],[1,0.25,0],[1,0.5,0],[1,0.75,0],[0.75,1,0],[0.5,1,0],[0.25,1,0],[0,0.75,0],[0,0.5,0],[0,0.25,0]];" parent="P9d3PVxfsxtBwwCNncyn-1" vertex="1">
                        <mxGeometry x="360" y="340" width="280" height="70" as="geometry"/>
                    </mxCell>
                </object>
                <mxCell id="P9d3PVxfsxtBwwCNncyn-20" value="CRUD SQL" style="edgeStyle=orthogonalEdgeStyle;rounded=0;orthogonalLoop=1;jettySize=auto;html=1;" parent="P9d3PVxfsxtBwwCNncyn-1" source="P9d3PVxfsxtBwwCNncyn-21" target="P9d3PVxfsxtBwwCNncyn-17" edge="1">
                    <mxGeometry relative="1" as="geometry"/>
                </mxCell>
                <object placeholders="1" c4Name="Entity Framework Core" c4Type="EF Framework Core MSSQL Provider " c4Description="Entity Framework Core" label="&lt;b&gt;%c4Name%&lt;/b&gt;&lt;div&gt;[%c4Type%]&lt;/div&gt;&lt;br&gt;&lt;div&gt;%c4Description%&lt;/div&gt;" id="P9d3PVxfsxtBwwCNncyn-21">
                    <mxCell style="rounded=1;whiteSpace=wrap;html=1;labelBackgroundColor=none;fillColor=#1168BD;fontColor=#ffffff;align=center;arcSize=10;strokeColor=#1168BD;metaEdit=1;metaData={&quot;c4Type&quot;:{&quot;editable&quot;:false}};points=[[0.25,0,0],[0.5,0,0],[0.75,0,0],[1,0.25,0],[1,0.5,0],[1,0.75,0],[0.75,1,0],[0.5,1,0],[0.25,1,0],[0,0.75,0],[0,0.5,0],[0,0.25,0]];" parent="P9d3PVxfsxtBwwCNncyn-1" vertex="1">
                        <mxGeometry x="360" y="570" width="280" height="70" as="geometry"/>
                    </mxCell>
                </object>
                <mxCell id="FLz5yx3xKgqBNFCOjgOe-2" style="edgeStyle=orthogonalEdgeStyle;rounded=0;orthogonalLoop=1;jettySize=auto;html=1;entryX=0.5;entryY=0;entryDx=0;entryDy=0;entryPerimeter=0;" parent="P9d3PVxfsxtBwwCNncyn-1" source="FLz5yx3xKgqBNFCOjgOe-0" target="P9d3PVxfsxtBwwCNncyn-21" edge="1">
                    <mxGeometry relative="1" as="geometry"/>
                </mxCell>
                <object placeholders="1" c4Name="Repository" c4Type="Repository" c4Description="Repository" label="&lt;b&gt;%c4Name%&lt;/b&gt;&lt;div&gt;[%c4Type%]&lt;/div&gt;&lt;br&gt;&lt;div&gt;%c4Description%&lt;/div&gt;" id="FLz5yx3xKgqBNFCOjgOe-0">
                    <mxCell style="rounded=1;whiteSpace=wrap;html=1;labelBackgroundColor=none;fillColor=#1168BD;fontColor=#ffffff;align=center;arcSize=10;strokeColor=#1168BD;metaEdit=1;metaData={&quot;c4Type&quot;:{&quot;editable&quot;:false}};points=[[0.25,0,0],[0.5,0,0],[0.75,0,0],[1,0.25,0],[1,0.5,0],[1,0.75,0],[0.75,1,0],[0.5,1,0],[0.25,1,0],[0,0.75,0],[0,0.5,0],[0,0.25,0]];" parent="P9d3PVxfsxtBwwCNncyn-1" vertex="1">
                        <mxGeometry x="400" y="460" width="200" height="60" as="geometry"/>
                    </mxCell>
                </object>
                <mxCell id="FLz5yx3xKgqBNFCOjgOe-4" style="edgeStyle=orthogonalEdgeStyle;rounded=0;orthogonalLoop=1;jettySize=auto;html=1;entryX=0.5;entryY=0;entryDx=0;entryDy=0;entryPerimeter=0;" parent="P9d3PVxfsxtBwwCNncyn-1" source="FLz5yx3xKgqBNFCOjgOe-3" target="P9d3PVxfsxtBwwCNncyn-19" edge="1">
                    <mxGeometry relative="1" as="geometry"/>
                </mxCell>
                <object placeholders="1" c4Name="Rest API Key" c4Type="Rest API Key" c4Description="Rest API Key" label="&lt;b&gt;%c4Name%&lt;/b&gt;&lt;div&gt;[%c4Type%]&lt;/div&gt;&lt;br&gt;&lt;div&gt;%c4Description%&lt;/div&gt;" id="FLz5yx3xKgqBNFCOjgOe-3">
                    <mxCell style="rounded=1;whiteSpace=wrap;html=1;labelBackgroundColor=none;fillColor=#1168BD;fontColor=#ffffff;align=center;arcSize=10;strokeColor=#1168BD;metaEdit=1;metaData={&quot;c4Type&quot;:{&quot;editable&quot;:false}};points=[[0.25,0,0],[0.5,0,0],[0.75,0,0],[1,0.25,0],[1,0.5,0],[1,0.75,0],[0.75,1,0],[0.5,1,0],[0.25,1,0],[0,0.75,0],[0,0.5,0],[0,0.25,0]];" parent="P9d3PVxfsxtBwwCNncyn-1" vertex="1">
                        <mxGeometry x="360" y="210" width="280" height="70" as="geometry"/>
                    </mxCell>
                </object>
            </root>
        </mxGraphModel>
    </diagram>
</mxfile>